# xmcd CD database file
#
# Track frame offsets:
#	150
#	17020
#	32605
#	51027
#	71620
#	88290
#	104782
#	128267
#	142957
#	165870
#	180785
#	198027
#	214577
#	232982
#	247085
#	264820
#	283270
#	305037
#	320922
#
# Disc length: 4475 seconds
#
# Revision: 0
# Processed by: cddbd v1.4PL0 Copyright (c) Steve Scherf et al.
# Submitted via: CDex 1.50
#
DISCID=03117913
DTITLE=Various Artist - The Complete Master Jazz Piano Series
DYEAR=1992
DGENRE=Jazz
TTITLE0=Sir Charles Thompson - Black Blues
TTITLE1=Sir Charles Thompson - Tunis In
TTITLE2=Gloria Hearn - Wait A Little While
TTITLE3=Gloria Hearn - Just Squeeze Me
TTITLE4=Gloria Hearn - Cute
TTITLE5=Gloria Hearn - It Could Happen To You
TTITLE6=Ram Ramirez - Cold Hand Blues
TTITLE7=Ram Ramirez - Mad About You
TTITLE8=Ram Ramirez - Hennessey
TTITLE9=Ram Ramirez - Lover
TTITLE10=Ram Ramirez - You Ain't Gonna Bother Me No More
TTITLE11=Ram Ramirez - Li'l Darlin'
TTITLE12=Ram Ramirez - Lover Man
TTITLE13=Ram Ramirez - I Just Refuse To Sing The Blues
TTITLE14=Ram Ramirez - Janet
TTITLE15=Ram Ramirez - Martell
TTITLE16=Ram Ramirez - Fascinatin' Rhythm
TTITLE17=Ram Ramirez - Prelude To A Kiss
TTITLE18=Ram Ramirez - I Just Refuse To Sing The Blues
EXTD=YEAR: 1992
EXTT0=
EXTT1=
EXTT2=
EXTT3=
EXTT4=
EXTT5=
EXTT6=
EXTT7=
EXTT8=
EXTT9=
EXTT10=
EXTT11=
EXTT12=
EXTT13=
EXTT14=
EXTT15=
EXTT16=
EXTT17=
EXTT18=
PLAYORDER=
